<svg xmlns="http://www.w3.org/2000/svg" viewBox="0 0 841.9 595.3">
  <g fill="#61DAFB">
    <path d="M666.3 296.5c0 32.5-40.7 63.3-103.1 82.4 14.4 63.6 8 114.2-20.2 130.4-6.5 3.8-14.1 5.6-22.4 5.6v-22.3c4.6 0 8.3-.9 11.4-2.6 13.6-7.8 19.5-37.5 14.9-75.7-1.1-9.4-2.9-19.3-5.1-29.4-19.6 4.8-40.4 8.5-61.6 10.9-13.9 19.1-28.2 36.3-42.6 51.5-30.3 32.1-58.9 49.1-79.3 49.1-8.5 0-15.8-2.1-21.6-6.1-28.1-18.2-34.4-69.4-19.9-132.8-62-19.2-102.5-49.9-102.5-82.3 0-32.4 40.6-63.1 102.4-82.3-14.6-63.4-8.3-114.6 19.8-132.8 6.5-4.2 14.4-6.2 23.4-6.2 20.7 0 48.6 17 78.7 48.9 14.2 15.1 28.4 32.1 42.2 50.9 21.4 2.4 42.2 6.1 62 11.1 2.3-10.4 4-20.6 5.2-30.3 4.7-38.2-1.1-67.9-14.6-75.8-3-1.8-6.9-2.6-11.5-2.6V78c8.4 0 16 1.8 22.6 5.6 28.1 18.2 34.4 69.4 19.9 132.8 61.6 19.2 102.1 49.9 102.1 82.1zM421.2 430c9.3-9.9 18.6-21.4 27.8-34 9-12.4 17.5-25.3 25.4-38.5-8-.4-16.1-.7-24.4-.7-8.4 0-16.8.2-25 .6-7.8 13-16.1 25.9-24.9 38.2-9.2 13-18.6 24.6-27.8 34.7 8.9.4 17.8.6 26.9.6 9.5 0 18.9-.2 28.2-.9zm-65.5-58.4c-14.2-2.1-27.9-4.7-41-7.9-3 9.6-5.5 18.9-7.6 27.8-7.9 35.9-6.9 64.7 2.7 70.4 1.5 1 3.5 1.5 6 1.5 10.6 0 29.4-13.2 50.5-35.6 10.6-11.2 21.2-24.1 31.5-38.4-12.2-1.2-24.2-3-36.1-5.2zm-74.4-42.9c-9.3-3.2-18.1-6.7-26.4-10.5-11.3 10.3-21.4 20.8-30 31.1-22.6 26.4-32.9 48.9-26.5 54 1.4 1.2 3.4 1.8 5.9 1.8 10.4 0 29.6-12.4 50.7-34.6 9-9.6 18-20.3 27-32-0.2-0.1-0.4-0.1-0.7-0.2zm-24.5-42.2c-19.5-8.4-36.3-18-50.2-28.3-16.3-12-26.2-24.3-26.2-32.6 0-8.2 9.7-20.4 26-32.4 13.6-10 30.4-19.5 49.7-27.7-5.8-11.8-10.9-23.8-15.3-35.9-26.4 11-49.5 24.7-68 39.8-22.5 18-34.8 36-34.8 55.8 0 19.9 12.4 38.1 35.2 56.3 18.2 14.5 41.4 27.8 67.8 38.7 4.5-12.1 9.6-24.1 15.4-36.1zm342.8 67.1c-13.2 11-29.8 21.2-49 30.3 5.4 12 10.4 24.2 14.8 36.5 26-11 48.9-24.5 67-39.5 22.8-18.3 35.1-36.5 35.1-56.2 0-19.8-12.3-37.8-34.9-55.7-18.1-14.4-41.2-27.5-67.6-38.4-4.6 12.2-9.7 24.4-15.6 36.6 19.6 8.4 36.2 17.9 49.7 28.1 16.5 12 26.3 24.2 26.3 32.4 0 8.4-9.8 20.7-26.8 32.9zm-68.4-31c-8.1 3.5-16.8 6.9-26 10 0.4 0.1 0.8 0.3 1.1 0.4 9.2 13.1 18.6 25.8 28 37.4 21.6 26.4 41.8 39.5 52.1 39.5 2.4 0 4.4-0.5 5.9-1.5 7.9-5 9-27.3 1.1-61-2.1-9.1-4.7-18.6-7.7-28.4-13.1 3.3-26.9 6-41.8 8.6 0.2-0.1 0.2-0.3 0.3-0.5zm-148.5-34.1c-8.8-0.2-17.5-0.2-26.4 0.1-13.5 18-26.3 36.6-38 55.7-7.8 12.7-14.8 25.1-21 37.1 7.7 0.7 15.5 1 23.4 1 8.4 0 16.9-0.3 25.1-0.7 13.4-18.1 26.4-36.7 38.9-55.9 7.6-12.3 14.6-24.7 20.9-37.3zm78.5-14.3c-12.3-2.6-25.3-4.5-38.8-6-7.3 12.8-14.8 25.7-22.5 38.5 8.2-0.1 16.5-0.1 24.8 0.2 12.7 0.4 25.1 1.1 37.1 2.2 7.4-12.1 14.6-24.4 21.4-36.7-7.3-0.8-14.9-1.6-22.9-2.2zM320.8 78.4c-13.6 7.8-19.5 37.6-14.9 75.8 1.1 9.4 2.9 19.3 5.1 29.4 19.6-4.8 40.4-8.5 61.6-10.9 13.9-19.1 28.2-36.3 42.6-51.5 30.3-32.1 58.9-49.1 79.3-49.1 8.5 0 15.8 2.1 21.6 6.1 28.1 18.2 34.4 69.4 19.9 132.8 62 19.2 102.5 49.9 102.5 82.3 0 32.4-40.6 63.1-102.4 82.3 14.6 63.4 8.3 114.6-19.8 132.8-6.5 4.2-14.4 6.2-23.4 6.2-20.7 0-48.6-17-78.7-48.9-14.2-15.1-28.4-32.1-42.2-50.9-21.4-2.4-42.2-6.1-62-11.1-2.3 10.4-4 20.6-5.2 30.3-4.7 38.2 1.1 67.9 14.6 75.8 3 1.8 6.9 2.6 11.5 2.6 8.4 0 16-1.8 22.6-5.6 28.1-18.2 34.4-69.4 19.9-132.8 61.6-19.2 102.1-49.9 102.1-82.1 0-32.4-40.7-63.3-103.1-82.4 14.4-63.6 8-114.2-20.2-130.4-6.5-3.8-14.1-5.6-22.4-5.6-8.1 0.1-15.8 2.1-22.5 6.2z" />
    <circle cx="420.9" cy="296.5" r="45.7" />
    <path d="M520.5 78.1z" />
  </g>
</svg>
